<?xml version="1.0" encoding="UTF-8"?><svg id="a" xmlns="http://www.w3.org/2000/svg" width="365.78" height="365.78" viewBox="0 0 365.78 365.78"><path d="M144.55,98.25c3.24-16.99,6.49-32.91,8.58-49.28,1.31-10.31-8.06-18.6-17.38-19.79-13.04-1.77-22.54,6.71-24.48,18.98l-6.46,40.93c14.87-3.42,27.6,0,39.74,9.17ZM265.33,164.63c13.38-1.49,23.41-10.09,27.79-21.1,4.81-12.1,2-24.61-6.32-34.8l10.04-59.58c1.99-11.81-10.4-20.12-20.44-20.23-11.92-.13-19.68,8.31-21.57,19.84l-8.72,53.25c-14.83,8.01-21.22,24.54-16.38,39.9s18.82,24.61,35.6,22.73ZM125.06,207.76l8.07-46.43c9.36-6.03,15.07-15.72,15.86-25.97.85-11.15-3.08-21.96-11.82-28.72-14.3-11.06-34.26-9.27-45.91,3.65s-11.38,32.79,1.02,46.07l-7.17,43.02c14.76-4.37,27.58-.41,39.96,8.39ZM74.98,151.8c-5.38-14.49-5.24-26.84,1.13-39.74l-41.07.02c-9.94,2.19-16.45,10.48-16.19,20.47.23,8.64,6.92,18.76,16.96,19.14,13.18.5,26.1.27,39.16.1ZM220.92,151.86c-5.86-14.36-5.56-26.76.27-39.86l-65.14.31c6.44,13.75,5.61,26.49.34,39.65l64.52-.1ZM349.69,151.48c10.3-.57,15.98-11.27,16.09-19.91.1-8.28-6.05-18.38-15.64-19.05-15.65-1.09-31.07-.3-47.33-.16,6.12,13.89,5.36,26.5-.61,39.51,16.14-.03,31.39.49,47.49-.4ZM269.68,207.19l5.71-32.64c-15.04,4.02-28.08,1.7-40.51-6.73l-5.3,31.44c14.32-4.01,27.52-1.04,40.1,7.93ZM104.55,322.54l9.49-52.89c9.12-5.99,14.6-15.48,15.31-25.5.75-10.52-3.1-20.75-11.27-27.43-13.82-11.32-33.07-9.61-44.91,2.62-12.26,12.67-12.07,32.05.05,45.67-2.66,17.64-6.78,34.94-8.54,53.06-1,10.32,9.02,18,17.75,18.92,9.06.95,20.25-4.05,22.12-14.45ZM250.86,318.54l8.82-48.55c7.62-6.75,14.45-14.91,15.13-24.75.74-10.71-2.3-20.89-10.35-27.87-13.57-11.77-33.5-10.99-45.69,1.4-12.33,12.54-12.79,32.41-.3,45.9l-8.79,51.55c-1.14,6.69,3.44,13.26,7.81,16.56,5.33,4.03,11.65,4.95,17.88,3.36,8.68-2.21,13.83-8.42,15.5-17.59ZM55.74,259.18c-4.58-13.08-4.61-25.7,2.36-38.66l-40.56.13C7.08,220.68-.13,230.96,0,240.55s8.1,18.34,18.63,18.4l37.11.23ZM200.86,259.01c-5.06-14.54-3.58-26.23,2.2-38.68l-67.16.14c6.01,13.26,6.49,25.67,1.55,38.55h63.41ZM333.43,258.45c10.02-.69,15.49-11.33,15.1-19.61s-6.53-18.04-16.16-18.43c-17.26-.69-34.06-.34-51.3-.08,6.69,12.98,6.77,25.01,2.09,38.53,16.76.09,33.17.77,50.27-.41Z" style="fill:#fff;"/><path d="M265.33,164.63c-16.78,1.87-30.99-8.1-35.6-22.73-4.84-15.36,1.55-31.89,16.38-39.9l8.72-53.25c1.89-11.52,9.66-19.97,21.57-19.84,10.04.11,22.43,8.42,20.44,20.23l-10.04,59.58c8.32,10.19,11.12,22.7,6.32,34.8-4.38,11.01-14.41,19.61-27.79,21.1Z"/><path d="M250.86,318.54c-1.67,9.17-6.81,15.38-15.5,17.59-6.24,1.59-12.55.67-17.88-3.36-4.36-3.3-8.95-9.87-7.81-16.56l8.79-51.55c-12.49-13.48-12.03-33.36.3-45.9,12.19-12.39,32.12-13.17,45.69-1.4,8.05,6.98,11.09,17.16,10.35,27.87-.68,9.84-7.51,18-15.13,24.75l-8.82,48.55Z"/><path d="M104.55,322.54c-1.87,10.4-13.06,15.4-22.12,14.45-8.73-.92-18.76-8.6-17.75-18.92,1.76-18.12,5.87-35.42,8.54-53.06-12.12-13.62-12.3-33.01-.05-45.67,11.84-12.24,31.09-13.94,44.91-2.62,8.16,6.69,12.02,16.91,11.27,27.43s-6.19,19.51-15.31,25.5l-9.49,52.89Z"/><path d="M125.06,207.76c-12.38-8.79-25.2-12.76-39.96-8.39l7.17-43.02c-12.4-13.28-12.9-32.89-1.02-46.07s31.62-14.71,45.91-3.65c8.74,6.77,12.67,17.57,11.82,28.72-.79,10.25-6.5,19.94-15.86,25.97l-8.07,46.43Z"/><path d="M144.55,98.25c-12.14-9.16-24.87-12.59-39.74-9.17l6.46-40.93c1.94-12.27,11.44-20.75,24.48-18.98,9.32,1.19,18.69,9.48,17.38,19.79-2.08,16.37-5.34,32.29-8.58,49.28Z"/><path d="M220.92,151.86l-64.52.1c5.27-13.15,6.1-25.9-.34-39.65l65.14-.31c-5.83,13.1-6.12,25.49-.27,39.86Z"/><path d="M333.43,258.45c-17.1,1.17-33.51.49-50.27.41,4.68-13.52,4.59-25.54-2.09-38.53,17.24-.26,34.04-.61,51.3.08,9.62.39,15.76,10.01,16.16,18.43s-5.08,18.93-15.1,19.61Z"/><path d="M200.86,259.01h-63.41c4.94-12.86,4.46-25.27-1.55-38.53l67.16-.14c-5.78,12.44-7.26,24.14-2.2,38.68Z"/><path d="M349.69,151.48c-16.09.9-31.35.38-47.49.4,5.98-13.01,6.73-25.63.61-39.51,16.25-.15,31.67-.93,47.33.16,9.58.67,15.74,10.77,15.64,19.05-.11,8.63-5.79,19.33-16.09,19.91Z"/><path d="M74.98,151.8c-13.06.17-25.98.4-39.16-.1-10.05-.38-16.73-10.5-16.96-19.14-.27-9.99,6.24-18.28,16.19-20.47l41.07-.02c-6.37,12.9-6.51,25.24-1.13,39.74Z"/><path d="M55.74,259.18l-37.11-.23C8.1,258.89.13,250.14,0,240.55s7.08-19.87,17.55-19.9l40.56-.13c-6.98,12.96-6.94,25.58-2.36,38.66Z"/><path d="M269.68,207.19c-12.58-8.97-25.78-11.94-40.1-7.93l5.3-31.44c12.43,8.43,25.47,10.74,40.51,6.73l-5.71,32.64Z"/></svg>